<svg xmlns="http://www.w3.org/2000/svg" aria-hidden="true" style="position:absolute;width:0;height:0;overflow:hidden">
  <defs>
    <symbol id="icon-group-6" viewBox="0 0 67 32">
      <path d="M33.8 15.2c-.3-.4-.5-.9-.4-1.4v-2c0-.7.1-1.1.4-1.5s.8-.4 1.5-.4c.6 0 1 0 1.4.4.3.3.4.8.4 1.2v.5h-1.2v-1l-.2-.3a.7.7 0 0 0-.4 0h-.5l-.2.4v3l.1.7.3.1h.7l.2-.4v-1h1.2v.5c0 .5-.1 1-.4 1.3-.3.3-.8.5-1.4.5s-1.2-.2-1.5-.6zm4.9.1c-.3-.4-.5-.8-.5-1.4v-2.2c0-.6.2-1 .5-1.4s.8-.4 1.4-.4c.7 0 1.2.1 1.5.4.3.3.5.8.5 1.4V14c0 .6-.2 1-.5 1.4s-.8.5-1.5.5-1.1-.2-1.4-.5zm2-.5.1-.7v-2.6l-.1-.7-.2-.1h-.7l-.2.1c-.1.2-.2.5-.1.7V14l.1.7.2.1h.6l.3-.1zm2.8-4.8h1.2l1 3.9 1-4h1.2l.1 5.8h-1v-4l-1 4h-.7l-1-4v4h-1l.2-5.8zm5.9 0h2c1.1 0 1.7.5 1.7 1.6 0 1-.6 1.5-1.8 1.5h-.7v2.6h-1.2V9.9zm1.7 2.4a1 1 0 0 0 .7-.2c0-.2.2-.4.1-.7V11l-.1-.1-.2-.2h-1v1.7h.5zm3.7-2.4h1.3l1.3 5.7h-1l-.3-1.4h-1.2l-.3 1.4h-1.1l1.3-5.8zm1.1 3.7-.4-2.4-.5 2.4h1zm2.6-3.7h.9l1.6 3.2V9.9h1v5.8h-.8l-1.6-3.5v3.5h-1V9.9zm5.9 3.5L63 9.9h1.1l.9 2.3.7-2.3h1.1l-1.3 3.6v2.2h-1.2v-2.2zm-28.7 4.7v.3h-1v2.3h-.4v-2.3h-1v-.3h2.4zm3.1 2.6h-.5L38 20h-1.4l-.2.6v.1h-.5l1.2-2.6h.4l1.3 2.6zm-2-1h1.1l-.5-1v-.3l-.1.2-.5 1.1zm4.1.8h.2a1.4 1.4 0 0 0 .3-.1h.2v-.7h-.5v-.2h.9v1a2 2 0 0 1-.8.2h-1l-.5-.3a1.3 1.3 0 0 1-.4-1l.1-.5c0-.2.2-.3.3-.5l.5-.2a2 2 0 0 1 1-.1 1.7 1.7 0 0 1 .7.3v.2h-.4l-.2-.1a1.5 1.5 0 0 0-1 0 1 1 0 0 0-.6.5v.9l.2.3.4.2h.5zm3.8-.1H46v.3h-1.7v-2.6h.4v2.3zm2.7.3H47v-2.6h.4v2.6zm1.6-2.6 1.8 2V18h.3v2.7h-.3l-1.8-2V21h-.3v-2.7h.2zm5.2 0v.3h-1.5v.8H54v.3h-1.2v1h1.5v.2h-1.9v-2.6h1.9zM10.8 1.9l18.4 4.5v15.8l-18.4-4.5V1.9zM9.6.5v18l20.8 5V5.6L9.6.6z"/>
      <path d="M20.7 31.8 0 26.8v-18L20.7 14v18z"/>
      <path d="M10 1.7 28 6l-7.7 6.7-18-4.4L10 1.7zM9.6.5 0 9l20.7 5 9.7-8.3L9.6.6zM22 30.8l8.4-7.3-8.5-2v9.3z"/>
    </symbol>
    <symbol id="icon-group-5" viewBox="0 0 44 32">
      <path d="M3.3 26.7c.2.2.3.4.3.7l-.1.4-.3.4c-.3.2-.8.4-1.2.3H0v-4.2h2c.4 0 .8 0 1.1.2l.3.4c.1.1 0 .3 0 .4.1.3 0 .5-.1.7a1 1 0 0 1-.7.3c.3 0 .6.2.7.4zM1 26h.9c.2 0 .4 0 .5-.2l.2-.2v-.4s0-.2-.2-.2a.9.9 0 0 0-.5-.2h-1V26zm1.5 1.6.2-.2V27l-.2-.2a1 1 0 0 0-.6-.1H1v1.1h1l.5-.1zm4.9.9L6.3 27h-.4v1.6h-1v-4.2h1.8c.5 0 1 0 1.3.3.2.3.4.6.4.9s0 .6-.3.9c-.2.2-.5.4-.8.4l1.1 1.7h-1zM6 26.3h.8c.5 0 .8-.2.8-.7v-.2l-.2-.2a1 1 0 0 0-.6-.2H6v1.3zm6.6 1.4h-1.9l-.3.8h-1l1.7-4.2h1.1l1.7 4.2h-1l-.3-.8zm-.2-.7-.7-1.8L11 27h1.4zm6.7 1.5h-.9l-2.1-2.9v3h-1v-4.3h1l2.1 2.9v-3h1v4.3zm5.5-1a2 2 0 0 1-1 .8 3 3 0 0 1-1.2.2h-1.7v-4.2h1.7c.4 0 .9 0 1.3.2s.7.4.9.8a2.3 2.3 0 0 1 0 2.2zm-1.1 0c.2-.4.4-.7.4-1.1s-.2-.7-.4-1a2 2 0 0 0-1.2-.4h-.7v2.8h.7a2 2 0 0 0 1.2-.4zM13.2.5s12.2 4.2 12 10.2v10.2s-12.2-4.2-12-10.2V.5zm22.8 18a18 18 0 0 1 7.8-2.6v-3.2c-3.2 1.1-6 3.2-7.7 5.8z"/>
      <path d="M34.7 19.4a16 16 0 0 1 9.1-7.3V2.9s-17.4 5.9-17 14.5v14.4l2-.7v-1.4c.4-4 2.5-7.7 5.9-10.3z"/>
      <path d="m33 24.8.6-3a13.3 13.3 0 0 0-3.7 8.8l3.4-1.6c-.3-1.4-.4-2.8-.3-4.2zm.7.1a13 13 0 0 0 .2 3.8C38.7 26 44 22 44 17.4v-.5a16 16 0 0 0-9.1 3.9 13 13 0 0 0-1 4z"/>
    </symbol>
    <symbol id="icon-group-3" viewBox="0 0 66 32">
      <path d="M10.2 9.8c-1.9 0-3.4 1.3-3.4 3s1.5 3 3.4 3 3.4-1.3 3.4-3-1.5-3-3.4-3zm24.8-1c0-2.3-1-4.6-2.8-6.2S28 0 25.3 0c-2.6 0-5 1-6.9 2.6s-2.8 3.9-2.8 6.2v12.9S35 19.7 35 8.8zM0 25.9c0 1.6.7 3.2 2 4.3S5 32 6.8 32c1.8 0 3.5-.7 4.8-1.8s2-2.7 2-4.3v-9S0 18.3 0 26zm6.8 1.6c-.4 0-.7-.1-1-.3l-.7-.7c-.2-.3-.1-.6 0-1l.4-.8c.2-.3.6-.3 1-.4l1 .1c.4.1.6.3.8.6a1.5 1.5 0 0 1-.3 2l-.5.4h-.7zm12.4-2.9v3.3h-.7v-3.3h.7zm1.3 1.4v.6H19V26h1.5zm.2-1.4v.5H19v-.5h1.7zm3.1 1.6v.8c0 .2-.2.4-.4.5 0 .2-.2.3-.4.4h-1.2l-.4-.4-.3-.5a2 2 0 0 1-.1-.7v-.8l.4-.5c.1-.2.3-.3.4-.3l.6-.1h.6l.4.4c.2.1.3.3.3.5l.1.7zm-.7.1v-.6s0-.2-.2-.3l-.2-.2-.3-.1h-.3l-.2.3-.2.3v1.1l.2.3.2.3h.6l.2-.3.2-.3v-.5zm3 .8v-.2l-.2-.1-.2-.2h-.3l-.4-.2-.4-.3a1 1 0 0 1-.2-.2l-.1-.4V25l.3-.3.4-.2a1.8 1.8 0 0 1 1.2 0l.4.4.1.6h-.6l-.1-.3-.2-.2h-.6l-.2.2v.4l.1.2h.2l.3.2c.2 0 .4 0 .5.2l.4.2.2.3v.7l-.3.3-.4.2h-1l-.4-.2-.3-.3-.1-.5h.7v.2l.1.2.3.1h.5a.4.4 0 0 0 .3-.3zm2.6-2.5v3.3H28v-3.3h.7zm1 0v.5H27v-.5h2.7zm2.6 2.8v.5h-1.7v-.5h1.7zm-1.5-2.8v3.3h-.7v-3.3h.7zM32 26v.5h-1.5V26H32zm.2-1.4v.5h-1.7v-.5h1.7zm.4 0H34l.6.1c.2 0 .4.2.5.3l.1.6v.5l-.3.3-.4.2h-1.3v-.4h.8l.3-.1.2-.2v-.5l-.2-.2h-.9v2.7h-.7v-3.3zm1.9 3.3-.8-1.5h.8l.7 1.5h-.7zm3.6-1.2h-.8v-.5h1.1l.2-.2v-.6l-.2-.2h-.8v2.7h-.7v-3.3h1.3l.7.1a1 1 0 0 1 .6 1c0 .2 0 .4-.2.5l-.4.4-.7.1zm4 .7v.5h-1.8v-.5h1.8zm-1.6-2.8v3.3H40v-3.3h.7zM42 26v.5h-1.5V26H42zm.3-1.4v.5h-1.8v-.5h1.8zm1.9 0v3.3h-.7v-3.3h.7zm1 0v.5h-2.7v-.5h2.7zm2.6 2.8v.5H46v-.5h1.7zm-1.5-2.8v3.3h-.7v-3.3h.7zm1.3 1.4v.5H46V26h1.5zm.2-1.4v.5H46v-.5h1.7zm.4 0h1.3l.6.1c.2 0 .4.2.5.3l.1.6v.5l-.3.3-.4.2h-1.3v-.4h.8l.3-.1.2-.2v-.5l-.2-.2h-1v2.7h-.7v-3.3zm2 3.3-.9-1.5h.8l.7 1.5H50zm2.8-.8v-.2l-.1-.1-.2-.2h-.4l-.4-.2-.4-.3a1 1 0 0 1-.2-.2V25l.3-.3.3-.2a1.8 1.8 0 0 1 1.2 0l.4.4.2.6H53v-.3l-.3-.2H52l-.1.2-.1.2v.1l.2.2h.2l.3.2c.1 0 .3 0 .4.2l.4.2.2.3v.7l-.3.3-.3.2h-1l-.5-.2-.3-.3v-.5h.6v.2l.2.2.2.1h.5a.4.4 0 0 0 .3-.3z"/>
    </symbol>
    <symbol id="icon-group-2" viewBox="0 0 34 32">
      <path d="m5.3 31.4.3.2-.5.3-.7.1-.7-.1c-.2 0-.3-.2-.5-.3l-.3-.4A1.5 1.5 0 0 1 3 30l.4-.4c.1-.2.3-.3.5-.3a2 2 0 0 1 1.3 0l.4.2-.1.2h-.2l-.1-.1a1.2 1.2 0 0 0-.4-.1 1.6 1.6 0 0 0-.7 0l-.4.3a1 1 0 0 0-.2.3l-.1.5v.4a1 1 0 0 0 .7.6h.7a1 1 0 0 0 .5-.2h.1zm5-.8-.1.6-.3.4-.6.3H8c-.2 0-.3-.2-.5-.3l-.3-.5c-.2-.3-.2-.7 0-1.1 0-.2.2-.3.3-.4.2-.2.3-.3.5-.3.5-.2 1-.2 1.3 0 .2 0 .4.1.5.3a1.3 1.3 0 0 1 .5 1zm-.5 0V30a1 1 0 0 0-.6-.5h-1a1 1 0 0 0-.4.2 1 1 0 0 0-.2.3v1a1 1 0 0 0 .6.5h1l.3-.2.3-.4v-.4zm3.9.4v.2-.1l.1-.1 1.1-1.7.1-.1h.4V32H15v-2.2l-1 1.7h-.5l-1.1-1.8V32H12v-2.7h.5l1.1 1.8zm4.1 0v1h-.4v-2.8h1.5l.4.2.2.3v.3a.8.8 0 0 1-.3.7l-.3.2h-1.1zm0-.4h.9l.2-.1.2-.2v-.5l-.2-.2a1 1 0 0 0-.5-.1h-.6v1.1zm5.8 1.4h-.4v-.1l-.4-.7h-1.4l-.3.7h-.5l1.3-2.7h.4l1.3 2.8zm-2.1-1h1.2l-.5-1.2-.1-.3v.2l-.1.1-.5 1.1zm4-1.8 2 2.1v-2.1h.3V32h-.2l-.2-.1-1.8-2v2h-.4v-2.7h.2zm5.5 1.7v1h-.4v-1l-1.2-1.7h.5l.8 1.2v.2l.1-.1.1-.1.7-1.1h.1l.1-.1h.4L31 30.9zm-17.5-6.4h.5c3-1 5.4-2.9 7.1-5.2s2.6-5 2.5-7.7L20.4 9c.7 3 .4 5.9-.9 8.7s-3.3 5.1-6 7z"/>
      <path d="M12.3 24.4h.1c3-1.8 5.2-4.3 6.4-7.2s1.5-6 .6-9L15 4.3a16.5 16.5 0 0 1-2.6 20zm15.5-9.5a14 14 0 0 1-5.4 7.6c-.8.6-1.6 1.2-2.5 1.6 2.2-.5 4.2-1.5 6-2.9s3-3 3.8-4.8L27.8 15z"/>
      <path d="m27 14.4-2.6-2.2c0 2.5-.9 5-2.4 7.2s-3.8 4-6.5 5.2h1.8c2.5-1 4.7-2.3 6.4-4s2.9-4 3.4-6.2zM12.7 2.7 9.6 0c-2.8 1-5.3 2.6-7 4.7S0 9.3 0 11.9c0 2.8 1.1 5.6 3.2 7.8s5 3.9 8.1 4.5c3-3 4.6-6.7 4.9-10.5s-1-7.8-3.5-11zM34.3 14c0-3.4-1.5-6.6-4.3-9s-6.6-3.7-10.6-3.7a17 17 0 0 0-5.3.8l19.2 16.5c.7-1.5 1-3 1-4.6z"/>
    </symbol>
    <symbol id="icon-group-1" viewBox="0 0 25 32">
      <path d="M10.5 1.8h-.7a14.2 14.2 0 0 0-.8 0 16 16 0 0 0-6.5 1.7h-.3v13.7L3 17a23.3 23.3 0 0 1 6.7-1.2v1.8H9A20 20 0 0 0 .5 20V2.5A18.3 18.3 0 0 1 9.8 0h.2a18.1 18.1 0 0 1 3.2.4v1.8a14 14 0 0 0-2.2-.4h-.5zm3.1 1.8h1.2a19.4 19.4 0 0 0 9.3-2.3v17.1a18.3 18.3 0 0 1-12.7 2.1V3.3a14.3 14.3 0 0 0 2.2.3zm8.8.1-.7.3-1.7.5a21.1 21.1 0 0 1-6.3.6h-.5v14h.4a14.2 14.2 0 0 0 5.3-.5c1.1-.2 2.2-.6 3.2-1.1l.3-.1V3.7zM1.7 26a1 1 0 0 0-.7-.3 1 1 0 0 0-.4 0 1 1 0 0 0-.5.6v3.2l.2.3.4.2h.7a1 1 0 0 0 .5-.6v-.6h-.5v.4l-.2.1-.2.1a.3.3 0 0 1-.3-.1v-2.9h.1c.1 0 .1-.1.2 0 0-.1 0 0 .1 0h.2v.6H2v-.3a1 1 0 0 0-.3-.7zm3.6 0A1 1 0 0 0 4 26a1 1 0 0 0-.2.3l-.1.4v2.7l.3.3.4.2a1 1 0 0 0 .7 0c.1 0 .2 0 .3-.2l.2-.3.1-.4v-2.7a1 1 0 0 0-.3-.4zM5 29a.4.4 0 0 1-.1.3.4.4 0 0 1-.6 0 .4.4 0 0 1 0-.3v-2.3a.4.4 0 0 1 0-.3.4.4 0 0 1 .6 0 .4.4 0 0 1 .1.3V29zm5 1v-4.3h-.5L8.7 28l-.8-2.3h-.6V30H8v-2.6l.6 1.8h.3l.6-1.8V30h.6zm3.5-4-.3-.2h-1.4V30h.6v-1.7h.3l.6-.1.3-.3.2-.4a3 3 0 0 0 0-1l-.3-.5zm-.3 1.3v.2l-.2.2h-.6v-1.4h.6l.2.2v.8zm3.2-1.6h-.5l-1 4.3h.6l.2-1h.8l.2 1h.6l-1-4.3zm-.6 2.8.3-1.6.3 1.6h-.6zm4.5-.2-1-2.6h-.5V30h.6v-2.6l1 2.6h.5v-4.3h-.6v2.6zm3.7-2.6-.5 1.7-.5-1.7h-.7l.9 2.5V30h.6v-1.8l.8-2.5H24zM0 31.2h.3v.8h.2v-.8h.3V31H0v.2zm2.4-.2-.3 1h.2v-.2h.4l.1.2H3l-.3-1h-.3zm0 .6.2-.4v.4h-.2zm2.5 0H5v.1l-.2.1h-.2l-.1-.3c0-.2 0-.3.3-.3H5c.1 0 0 0 0 .1h.3c0-.2-.2-.3-.4-.3l-.4.1-.1.2c-.1 0 0 .1 0 .2l.1.4a.5.5 0 0 0 .4.1c.1 0 .3 0 .4-.2v-.3h-.4v.1zm2.4-.6h-.2v1h.7v-.2h-.5V31zm2.1 0h-.2v1h.2v-1zm2.1.7L11 31h-.2v1h.2v-.7l.4.7h.2v-1h-.2v.7zm1.8-.2h.5v-.1h-.5v-.2h.5V31h-.7v1h.8v-.2h-.6v-.3zm4.5-.1h-.4V31h-.2v1h.2v-.4h.4v.4h.2v-1h-.2v.4zm1.8.1h.5v-.1h-.5v-.2h.6V31h-.7v1h.7v-.2h-.6v-.3zm2.6 0c.1 0 .2 0 .2-.2a.2.2 0 0 0 0-.2L22 31h-.4v1h.2v-.4h.2l.3.4h.2l-.1-.2-.2-.3zm-.2 0h-.2v-.3h.4v.1l-.2.1zm2 0h.6v-.1H24v-.2h.5V31h-.7v1h.7v-.2H24v-.3z"/>
    </symbol>
    <symbol id="icon-group" viewBox="0 0 28 32">
      <path d="m4 0 5 4.5H0v22h23.1v-8.3l4.8 4.5V0H4.1zm19 17.6L9.3 4.7H23v13zm-4.3 5.8h-15V8.5h1v13.9h14v1zm-12 7.3L6 29.5h-.5l.9 1.6v.8h.4v-.8l.8-1.6h-.5l-.5 1.2zm2-1.2h.1l1 2.4h-.5l-.2-.5h-1l-.1.5h-.4l.9-2.4h.2zM8.3 31H9l-.3-1-.4 1zm3-.4h-.1l-.2-.3v-.5l.3-.2.3-.1h.3l.2.3.1.2v.2l-.2.2-.1.2h-.2l.5.6a1 1 0 0 0 0-.4h.4v.3a1 1 0 0 1-.2.4l.4.4h-.5l-.1-.1-.3.1a1.1 1.1 0 0 1-.8 0 .7.7 0 0 1-.2-.3l-.1-.3V31l.2-.2.2-.2zm.1.3-.2.2a.4.4 0 0 0 0 .4l.2.1h.2a.6.6 0 0 0 .4 0l-.6-.7zm.1-.5h.2l.1-.2V30c0-.1-.1 0-.2 0a.2.2 0 0 0-.2 0v.3a1 1 0 0 0 .1.2zm4.3.8h-.5v.2l-.2.2h-.5l-.2-.2-.1-.2V30l.3-.1h.5l.2.2v.2h.5l-.2-.4-.3-.3-.5-.1a1 1 0 0 0-.4 0l-.3.3-.2.4v1.1l.2.4.3.2h.9l.3-.3.1-.4zm2.3-.4v-.1l-.1-.5a1 1 0 0 0-.2-.4l-.3-.2a1 1 0 0 0-.4-.1 1 1 0 0 0-.5 0l-.3.3-.2.4v1.1l.2.4.4.2h.8l.3-.2.2-.4v-.5zm-.5-.1v.5l-.1.2a.5.5 0 0 1-.4.2h-.3l-.2-.2v-.2l-.1-.4v-.5l.1-.3a.5.5 0 0 1 .5-.2h.2l.2.2.1.3v.4z"/>
    </symbol>
  </defs>
</svg>
